<svg width="56" height="61" viewBox="0 0 56 61" fill="none" xmlns="http://www.w3.org/2000/svg">
<path fill-rule="evenodd" clip-rule="evenodd" d="M51.2701 16.9726L55.3548 18.72C55.6146 18.8314 55.8196 19.0414 55.9247 19.3039C56.0299 19.5663 56.0266 19.8598 55.9156 20.1199L54.923 22.3835L48.9026 19.7972L49.8952 17.5335C50.0067 17.2737 50.2166 17.0686 50.479 16.9635C50.7415 16.8583 51.0349 16.8616 51.2949 16.9726H51.2701ZM4.40734 3.91178H8.47221V1.35522C8.49314 1.00933 8.64526 0.684465 8.89753 0.446947C9.1498 0.209429 9.4832 0.0771703 9.82965 0.0771703C10.1761 0.0771703 10.5095 0.209429 10.7618 0.446947C11.0141 0.684465 11.1662 1.00933 11.1871 1.35522V3.91178H17.143V1.35522C17.143 0.995797 17.2857 0.65109 17.5398 0.396936C17.7939 0.142782 18.1386 0 18.4979 0C18.8573 0 19.2019 0.142782 19.456 0.396936C19.7101 0.65109 19.8529 0.995797 19.8529 1.35522V3.91178H25.8087V1.35522C25.8087 0.995797 25.9515 0.65109 26.2056 0.396936C26.4597 0.142782 26.8043 0 27.1637 0C27.5231 0 27.8677 0.142782 28.1218 0.396936C28.3759 0.65109 28.5187 0.995797 28.5187 1.35522V3.91178H34.4745V1.35522C34.4745 0.995797 34.6173 0.65109 34.8714 0.396936C35.1255 0.142782 35.4701 8.07777e-08 35.8295 8.07777e-08C36.1888 8.07777e-08 36.5335 0.142782 36.7876 0.396936C37.0417 0.65109 37.1844 0.995797 37.1844 1.35522V3.91178H41.7853C42.953 3.91571 44.0718 4.3814 44.8975 5.20725C45.7231 6.0331 46.1888 7.15207 46.1927 8.31999V14.1678C45.8363 14.6049 45.5423 15.0894 45.3191 15.6074L44.3265 17.8711C44.2637 18.0598 44.2124 18.2521 44.1726 18.4469C44.0659 18.6316 43.9697 18.8222 43.8848 19.0178L43.587 19.7128V8.31999C43.5844 7.84945 43.3963 7.39893 43.0637 7.06621C42.731 6.73349 42.2806 6.54541 41.8102 6.54281H37.2241V9.09937C37.2241 9.45879 37.0814 9.8035 36.8273 10.0577C36.5732 10.3118 36.2285 10.4546 35.8692 10.4546C35.5098 10.4546 35.1652 10.3118 34.9111 10.0577C34.657 9.8035 34.5142 9.45879 34.5142 9.09937V6.54281H28.5584V9.09937C28.5584 9.45879 28.4156 9.8035 28.1615 10.0577C27.9074 10.3118 27.5628 10.4546 27.2034 10.4546C26.844 10.4546 26.4994 10.3118 26.2453 10.0577C25.9912 9.8035 25.8484 9.45879 25.8484 9.09937V6.54281H19.8529V9.09937C19.8529 9.45879 19.7101 9.8035 19.456 10.0577C19.2019 10.3118 18.8573 10.4546 18.4979 10.4546C18.1386 10.4546 17.7939 10.3118 17.5398 10.0577C17.2857 9.8035 17.143 9.45879 17.143 9.09937V6.54281H11.1871V9.09937C11.1662 9.44526 11.0141 9.77013 10.7618 10.0076C10.5095 10.2452 10.1761 10.3774 9.82965 10.3774C9.4832 10.3774 9.1498 10.2452 8.89753 10.0076C8.64526 9.77013 8.49314 9.44526 8.47221 9.09937V6.54281H4.40734C3.93609 6.54281 3.48415 6.73004 3.15093 7.06333C2.81771 7.39662 2.63051 7.84865 2.63051 8.31999V53.9906C2.63181 54.462 2.81927 54.9137 3.15207 55.2475C3.48487 55.5813 3.93604 55.7701 4.40734 55.7727H29.3624L29.6403 58.3988H4.40734C3.2397 58.3975 2.12019 57.9333 1.29408 57.1079C0.467971 56.2826 0.00262612 55.1634 0 53.9955L0 8.32495C0.00261641 7.15617 0.467642 6.03593 1.29347 5.20901C2.1193 4.38209 3.23879 3.91572 4.40734 3.91178ZM10.0952 46.8372C9.74636 46.8372 9.41182 46.6986 9.16516 46.4519C8.91851 46.2052 8.77993 45.8705 8.77993 45.5216C8.77993 45.1728 8.91851 44.8382 9.16516 44.5914C9.41182 44.3447 9.74636 44.2061 10.0952 44.2061H33.1146L31.9879 46.8372H10.0952ZM10.0952 38.1598C9.74636 38.1598 9.41182 38.0212 9.16516 37.7744C8.91851 37.5277 8.77993 37.1931 8.77993 36.8442C8.77993 36.4953 8.91851 36.1607 9.16516 35.914C9.41182 35.6673 9.74636 35.5287 10.0952 35.5287H36.1223C36.3441 35.5297 36.5616 35.5897 36.7526 35.7025L35.7004 38.1846L10.0952 38.1598ZM10.0952 29.4823C9.74636 29.4823 9.41182 29.3437 9.16516 29.097C8.91851 28.8503 8.77993 28.5157 8.77993 28.1668C8.77993 27.8179 8.91851 27.4833 9.16516 27.2366C9.41182 26.9899 9.74636 26.8513 10.0952 26.8513H36.1223C36.4711 26.8513 36.8057 26.9899 37.0523 27.2366C37.299 27.4833 37.4376 27.8179 37.4376 28.1668C37.4376 28.5157 37.299 28.8503 37.0523 29.097C36.8057 29.3437 36.4711 29.4823 36.1223 29.4823H10.0952ZM10.0952 20.8049C9.74636 20.8049 9.41182 20.6663 9.16516 20.4196C8.91851 20.1729 8.77993 19.8383 8.77993 19.4894C8.77993 19.1405 8.91851 18.8059 9.16516 18.5592C9.41182 18.3125 9.74636 18.1739 10.0952 18.1739H36.1223C36.4711 18.1739 36.8057 18.3125 37.0523 18.5592C37.299 18.8059 37.4376 19.1405 37.4376 19.4894C37.4376 19.8383 37.299 20.1729 37.0523 20.4196C36.8057 20.6663 36.4711 20.8049 36.1223 20.8049H10.0952ZM40.2021 56.8897L37.1298 59.3717C34.7227 61.3177 34.9659 61.8836 34.6482 58.9349L34.1519 54.2983L48.4112 20.939L54.4564 23.5303L40.2021 56.8897ZM35.1942 54.7501L39.1648 56.4478L37.1348 58.0811C35.5515 59.3618 35.7104 59.7292 35.5069 57.7981L35.1793 54.7501H35.1942Z" fill="#3BB1E3"/>
</svg>
